<?xml version="1.0" encoding="utf-8"?><svg xmlns="http://www.w3.org/2000/svg" xmlns:xlink="http://www.w3.org/1999/xlink" display="none"><symbol viewBox="0 0 510 510" id="i_bascet" xmlns="http://www.w3.org/2000/svg"><path d="M153 408c-28.05 0-51 22.95-51 51s22.95 51 51 51 51-22.95 51-51-22.95-51-51-51zM0 0v51h51l91.8 193.8-35.7 61.2c-2.55 7.65-5.1 17.85-5.1 25.5 0 28.05 22.95 51 51 51h306v-51H163.2c-2.55 0-5.1-2.55-5.1-5.1v-2.551l22.95-43.35h188.7c20.4 0 35.7-10.2 43.35-25.5L504.9 89.25c5.1-5.1 5.1-7.65 5.1-12.75 0-15.3-10.2-25.5-25.5-25.5H107.1L84.15 0H0zm408 408c-28.05 0-51 22.95-51 51s22.95 51 51 51 51-22.95 51-51-22.95-51-51-51z"/></symbol><symbol viewBox="0 0 267 96" id="i_logo" xmlns="http://www.w3.org/2000/svg"><path d="M170 1h98v87c-1.887-.35-3.772-1-5.66-1.006-30.727-.112-61.454-.143-92.181-.193L170 1zM99 97H-13.894V1H43L18.15 40.003c5.485 0 9.97-.48 14.313.1 9.305 1.24 16.444-.696 20.002-10.469 1.28-3.516 3.495-2.86 5.28.103 4.981 8.266 10.027 16.494 15.03 24.747.799 1.318 1.509 2.69 2.525 4.513H12.485c-7.312 0-10.05 2.27-11.928 10.147 25.716 0 51.356.05 76.995-.067 3.011-.013 4.808.839 6.403 3.465 4.83 7.954 9.964 15.723 14.98 23.564.013.299.035.597.065.894z" fill="transparent"/><path d="M98.934 96.106c-5.015-7.84-10.15-15.61-14.98-23.564-1.594-2.626-3.391-3.478-6.402-3.465-25.639.117-51.279.067-76.995.067 1.878-7.876 4.616-10.147 11.928-10.147H75.3c-1.016-1.822-1.726-3.195-2.525-4.513-5.003-8.253-10.049-16.48-15.03-24.747-1.785-2.962-4-3.62-5.28-.103-3.558 9.773-10.697 11.709-20.002 10.468-4.343-.578-8.828-.099-14.314-.099L43 1h23c1.338 1.638 2.85 3.165 3.99 4.932 19.12 29.652 38.195 59.335 57.28 89.011-1.696.352-3.388.978-5.09 1.01-7.747.142-15.497.118-23.246.153z" fill="#33d0d1"/><path d="M127.27 94.943C108.185 65.267 89.11 35.584 69.99 5.932 68.85 4.165 67.338 2.638 66 1h74l-.005 1.106.014 93.73L140 97h-12l-.73-2.057z" fill="transparent"/><path d="M140.01 95.837l-.015-93.731h29.016v5.99c0 24.638-.021 49.276.05 73.914.004 1.598.715 3.194 1.098 4.791 30.727.05 61.454.08 92.18.193 1.889.007 3.774.656 5.661 1.006v8c-9.667 0-19.333.012-29-.002-32.997-.049-65.994-.107-98.99-.161z" fill="#000098"/><path d="M140.01 95.837c32.996.054 65.993.112 98.99.161 9.667.014 19.333.002 29 .002-1.333.333-2.666.956-4 .958-41.333.051-82.667.042-124 .042l.01-1.163z" fill="#3089bf"/><path d="M170.159 86.801c-.383-1.597-1.094-3.193-1.099-4.791-.07-24.638-.049-49.276-.049-73.913V2.105h-29.016L140 1h30l.159 85.801z" fill="#90e4e5"/><path d="M127.27 94.943L128 97H99c-.03-.297-.052-.595-.065-.894 7.748-.035 15.498-.01 23.244-.153 1.703-.032 3.395-.658 5.091-1.01z" fill="#afeded"/></symbol></svg>