<?xml version="1.0" encoding="utf-8"?>
<!-- Generator: Adobe Illustrator 19.0.1, SVG Export Plug-In . SVG Version: 6.00 Build 0)  -->
<svg version="1.1" id="Слой_1" xmlns="http://www.w3.org/2000/svg" xmlns:xlink="http://www.w3.org/1999/xlink" x="0px" y="0px"
	 viewBox="0 0 267 96" style="enable-background:new 0 0 267 96;" xml:space="preserve">
<style type="text/css">
	.st0{fill:transparent;}
	.st1{fill:transparent;}
	.st2{fill:#33D0D1;}
	.st3{fill:transparent;}
	.st4{fill:#000098;}
	.st5{fill:#3089BF;}
	.st6{fill:#90E4E5;}
	.st7{fill:#AFEDED;}
</style>
<g>
	<g>
		<path class="st0" d="M170,1c32.6666718,0,65.3333282,0,98,0c0,29,0,58,0,87
			c-1.8866577-0.3502579-3.7721863-0.9992828-5.6600952-1.0061798c-30.7268219-0.1123123-61.4539032-0.1433105-92.1809387-0.1926727
			C170.1059875,58.2007637,170.0529938,29.6003819,170,1z"/>
		<path class="st1" d="M99,97c-37.5960083,0-75.1920166,0-112.8940125,0c0-31.9998093,0-63.9998436,0.0005007-95.999939
			C5.0713272,1,24.0356636,1,43,1.0000005c-8.0925941,12.7014446-16.1851883,25.4028893-24.8506584,39.0034714
			c5.4859657,0,9.9703178-0.4798508,14.3135796,0.0989799c9.3051453,1.240097,16.4440918-0.6956024,20.0016632-10.4679813
			c1.2803116-3.5169201,3.4956512-2.8597279,5.2804565,0.1023636c4.9810028,8.2665424,10.0269775,16.4939098,15.0299759,24.7472477
			c0.7990265,1.3181458,1.5087128,2.6904411,2.5245056,4.5127563c-21.5322495,0-42.173584-0.0000763-62.8149223,0.0000458
			c-7.311142,0.000042-10.0500374,2.2706947-11.9273672,10.1472664c25.7160034,0,51.3558693,0.049942,76.9949722-0.0668335
			c3.0108185-0.0137177,4.8079453,0.8386688,6.4025879,3.465004c4.8294907,7.9541092,9.9640045,15.7230225,14.9797745,23.5639267
			C98.9484482,96.4046402,98.9702225,96.7026138,99,97z"/>
		<path class="st2" d="M98.9344711,96.1063995c-5.0156708-7.8410568-10.1501846-15.6099701-14.9796753-23.5640793
			c-1.5946426-2.6263351-3.3917694-3.4787216-6.4025879-3.465004c-25.6391068,0.1167755-51.2789726,0.0668335-76.9949722,0.0668335
			c1.8773298-7.8765717,4.6162252-10.1472244,11.9273672-10.1472664
			c20.6413383-0.0001221,41.2826729-0.0000458,62.8149223-0.0000458c-1.0157928-1.8223152-1.7254791-3.1946106-2.5245056-4.5127563
			c-5.0029984-8.2533379-10.0489731-16.4807053-15.0299759-24.7472477c-1.7848053-2.9620914-4.000145-3.6192837-5.2804565-0.1023636
			c-3.5575714,9.7723789-10.6965179,11.7080784-20.0016632,10.4679813
			c-4.3432617-0.5788307-8.8276138-0.0989799-14.3135796-0.0989799C26.8148117,26.4028893,34.9074059,13.7014456,43,1.0000005
			C50.6666641,1,58.3333359,1,66,1.000001c1.3384476,1.6383238,2.8502426,3.1648641,3.9895096,4.9316254
			c19.1211395,29.6527901,38.1957855,59.335556,57.2807693,89.0116577
			c-1.6966858,0.3521271-3.3883209,0.9780273-5.0909271,1.0093994
			C114.4327545,96.0954056,106.6830521,96.070816,98.9344711,96.1063995z"/>
		<path class="st3" d="M127.2702789,94.9432831C108.1852951,65.2671814,89.1106491,35.5844154,69.9895096,5.9316263
			C68.8502426,4.164865,67.3384476,2.6383247,66,1.000001C90.6666641,1,115.3333282,1,140,1
			c-0.0016937,0.3688142-0.0033875,0.7376285-0.0050964,1.1064427c0.004837,31.243372,0.0096588,62.4867516,0.0144806,93.7301178
			C140.0062561,96.2243729,140.0031281,96.6121902,140,97c-4,0-8,0-12,0
			C127.7567596,96.3144302,127.5135193,95.6288605,127.2702789,94.9432831z"/>
		<path class="st4" d="M140.0093842,95.8365631c-0.0048218-31.2433701-0.0096436-62.4867477-0.0139923-93.7307053
			c9.5873413-0.0005822,19.1741943-0.0005822,29.015564-0.0005822c0,2.3705204,0,4.1809082,0,5.9912958
			c0,24.6378174-0.0213165,49.275692,0.0492554,73.9133072c0.0045776,1.5981216,0.7160797,3.1942291,1.0987549,4.7912674
			c30.7270355,0.0493622,61.4541168,0.0803604,92.1809387,0.1926727C264.2278137,87.0007172,266.1133423,87.6497421,268,88
			c0,2.6666641,0,5.3333359,0,8c-9.6666565,0.0000687-19.333313,0.012291-28.999939-0.0019989
			C206.0031738,95.9492111,173.0062714,95.8911133,140.0093842,95.8365631z"/>
		<path class="st5" d="M140.0093842,95.8365631c32.9968872,0.0545502,65.9937897,0.112648,98.9906769,0.161438
			C248.666687,96.012291,258.3333435,96.0000687,268,96c-1.3333435,0.3333359-2.6662903,0.9562988-4.000061,0.9579544
			C222.666687,97.009346,181.3333282,97,140,97C140.0031281,96.6121902,140.0062561,96.2243729,140.0093842,95.8365631z"/>
		<path class="st6" d="M170.1589661,86.8011475c-0.3826752-1.5970383-1.0941772-3.1931458-1.0987549-4.7912674
			c-0.0705719-24.6376152-0.0492554-49.2754898-0.0492554-73.9133072c0-1.8103876,0-3.6207752,0-5.9912958
			c-9.8413696,0-19.4282227,0-29.015564,0.0005822C139.9966125,1.7376285,139.9983063,1.3688142,140,1c10,0,20,0,30,0
			C170.0529938,29.6003819,170.1059875,58.2007637,170.1589661,86.8011475z"/>
		<path class="st7" d="M127.2702789,94.9432831C127.5135193,95.6288605,127.7567596,96.3144302,128,97
			c-9.6666718,0-19.3333359,0-29,0c-0.0297775-0.2973862-0.0515518-0.5953598-0.0654297-0.8937531
			c7.7484818-0.0354309,15.4981842-0.0108414,23.2447815-0.1535645
			C123.881958,95.9213104,125.5735931,95.2954102,127.2702789,94.9432831z"/>
	</g>
</g>
</svg>
